<svg xmlns="http://www.w3.org/2000/svg" xmlns:xlink="http://www.w3.org/1999/xlink" viewBox="0 0 1041.27 1000"><defs><style>.cls-1{fill:url(#무제_그라디언트_587);}.cls-2{fill:url(#무제_그라디언트_576);}.cls-3{fill:url(#무제_그라디언트_576-2);}.cls-4{fill:url(#무제_그라디언트_69);}.cls-5{fill:url(#무제_그라디언트_67);}.cls-6{fill:url(#무제_그라디언트_31);}.cls-7{fill:url(#무제_그라디언트_27);}.cls-8{fill:url(#무제_그라디언트_388);}.cls-9{fill:url(#무제_그라디언트_322);}.cls-10{fill:url(#무제_그라디언트_71);}.cls-11{fill:url(#무제_그라디언트_70);}.cls-12{fill:url(#무제_그라디언트_325);}.cls-13{fill:url(#무제_그라디언트_329);}.cls-14{fill:url(#무제_그라디언트_222);}.cls-15{fill:url(#무제_그라디언트_224);}.cls-16{fill:url(#무제_그라디언트_228);}.cls-17{fill:url(#무제_그라디언트_630);}.cls-18{fill:url(#무제_그라디언트_639);}</style><linearGradient id="무제_그라디언트_587" x1="35.89" y1="500" x2="1041.27" y2="500" gradientUnits="userSpaceOnUse"><stop offset="0" stop-color="#d4ffe5"/><stop offset="1" stop-color="#fbfffd"/></linearGradient><linearGradient id="무제_그라디언트_576" x1="127.8" y1="200.66" x2="380.57" y2="200.66" gradientUnits="userSpaceOnUse"><stop offset="0" stop-color="#fff"/><stop offset="0.27" stop-color="#fafffc"/><stop offset="0.62" stop-color="#eafff2"/><stop offset="1" stop-color="#d0ffe3"/><stop offset="1" stop-color="#d0ffe3"/></linearGradient><linearGradient id="무제_그라디언트_576-2" x1="639.05" y1="344.66" x2="1017.43" y2="344.66" xlink:href="#무제_그라디언트_576"/><linearGradient id="무제_그라디언트_69" x1="381.24" y1="300.23" x2="719.79" y2="300.23" gradientUnits="userSpaceOnUse"><stop offset="0" stop-color="#b66712"/><stop offset="0.17" stop-color="#b16311"/><stop offset="0.38" stop-color="#a1590e"/><stop offset="0.62" stop-color="#87470a"/><stop offset="0.88" stop-color="#632f04"/><stop offset="1" stop-color="#4f2200"/></linearGradient><radialGradient id="무제_그라디언트_67" cx="468.39" cy="381.55" r="186.65" gradientTransform="translate(41.27 -381.55) scale(1 2)" xlink:href="#무제_그라디언트_69"/><linearGradient id="무제_그라디언트_31" x1="318.74" y1="647.08" x2="704.12" y2="647.08" gradientUnits="userSpaceOnUse"><stop offset="0" stop-color="#ffdabf"/><stop offset="0.25" stop-color="#fed5bb"/><stop offset="0.57" stop-color="#fdc5ae"/><stop offset="0.93" stop-color="#fbab99"/><stop offset="1" stop-color="#faa594"/></linearGradient><linearGradient id="무제_그라디언트_27" x1="515.45" y1="497.05" x2="585.59" y2="497.05" xlink:href="#무제_그라디언트_31"/><linearGradient id="무제_그라디언트_388" x1="318.73" y1="661.22" x2="704.12" y2="661.22" gradientUnits="userSpaceOnUse"><stop offset="0" stop-color="#29abe2"/><stop offset="0.16" stop-color="#2ba6e3"/><stop offset="0.35" stop-color="#3296e7"/><stop offset="0.57" stop-color="#3e7cee"/><stop offset="0.81" stop-color="#4e58f6"/><stop offset="1" stop-color="#5d35ff"/></linearGradient><radialGradient id="무제_그라디언트_322" cx="527.03" cy="346.7" fx="469.77643679205175" fy="330.05833755623803" r="137.79" gradientUnits="userSpaceOnUse"><stop offset="0" stop-color="#fff0e5"/><stop offset="0.48" stop-color="#ffdabf"/><stop offset="0.61" stop-color="#fed5bb"/><stop offset="0.78" stop-color="#fdc5ae"/><stop offset="0.96" stop-color="#fbab99"/><stop offset="1" stop-color="#faa594"/></radialGradient><linearGradient id="무제_그라디언트_71" x1="499.5" y1="215.05" x2="632.15" y2="215.05" gradientTransform="translate(25.91 488.73) rotate(-47.69)" xlink:href="#무제_그라디언트_69"/><linearGradient id="무제_그라디언트_70" x1="392.36" y1="215.05" x2="525.92" y2="215.05" gradientTransform="translate(653.92 683.15) rotate(-137.69)" xlink:href="#무제_그라디언트_69"/><linearGradient id="무제_그라디언트_325" x1="356.05" y1="419.85" x2="477.75" y2="419.85" gradientUnits="userSpaceOnUse"><stop offset="0" stop-color="#999"/><stop offset="0.54" stop-color="#646464"/><stop offset="0.82" stop-color="#4d4d4d"/></linearGradient><linearGradient id="무제_그라디언트_329" x1="348.01" y1="231.44" x2="670.48" y2="231.44" gradientUnits="userSpaceOnUse"><stop offset="0" stop-color="#999"/><stop offset="0.26" stop-color="#969696"/><stop offset="0.48" stop-color="#8c8c8c"/><stop offset="0.68" stop-color="#7a7a7a"/><stop offset="0.87" stop-color="#626262"/><stop offset="1" stop-color="#4d4d4d"/></linearGradient><linearGradient id="무제_그라디언트_222" x1="354.32" y1="319.83" x2="440.89" y2="369.81" gradientUnits="userSpaceOnUse"><stop offset="0" stop-color="#999"/><stop offset="0.2" stop-color="#949494"/><stop offset="0.46" stop-color="#848484"/><stop offset="0.75" stop-color="#6a6a6a"/><stop offset="1" stop-color="#4d4d4d"/></linearGradient><linearGradient id="무제_그라디언트_224" x1="660.7" y1="319.83" x2="746.72" y2="369.49" xlink:href="#무제_그라디언트_222"/><radialGradient id="무제_그라디언트_228" cx="540.64" cy="457.68" r="36.65" xlink:href="#무제_그라디언트_222"/><linearGradient id="무제_그라디언트_630" y1="791.98" x2="381.24" y2="791.98" gradientUnits="userSpaceOnUse"><stop offset="0" stop-color="#fff"/><stop offset="1" stop-color="#b8ffe4"/><stop offset="1" stop-color="#d0ffe3"/></linearGradient><linearGradient id="무제_그라디언트_639" x1="734" y1="747.17" x2="868.04" y2="747.17" gradientUnits="userSpaceOnUse"><stop offset="0" stop-color="#fff"/><stop offset="0.23" stop-color="#fafffc"/><stop offset="0.53" stop-color="#eafff5"/><stop offset="0.85" stop-color="#d0ffe9"/><stop offset="1" stop-color="#c2ffe3"/></linearGradient></defs><g id="레이어_6" data-name="레이어 6"><rect class="cls-1" x="35.89" width="1005.38" height="1000"/><circle class="cls-2" cx="254.19" cy="200.66" r="126.38"/><circle class="cls-3" cx="828.24" cy="344.66" r="189.19"/><circle class="cls-4" cx="550.52" cy="300.23" r="169.28"/><rect class="cls-5" x="381.24" y="275.72" width="338.55" height="262.72" rx="52.47"/><path class="cls-6" d="M509.25,516.75C426.06,516.75,354,588.83,318.74,694c42.54,50.22,115.84,83.4,199.15,83.4,75.4,0,142.6-27.18,186.23-69.57C670.7,595.2,596,516.75,509.25,516.75Z" transform="translate(41.27)"/><rect class="cls-7" x="515.45" y="459.73" width="70.14" height="74.63" rx="16.64"/><path class="cls-8" d="M596.64,545c-18.92,21.3-51,35.31-87.39,35.31s-68.48-14-87.4-35.31c-44.58,30.35-81.05,83.19-103.12,149,42.55,50.23,115.85,83.41,199.16,83.41,75.41,0,142.61-27.18,186.23-69.58C682.7,635.62,644.31,577.46,596.64,545Z" transform="translate(41.27)"/><circle class="cls-9" cx="550.52" cy="344.66" r="137.11"/><rect class="cls-10" x="497.27" y="153.3" width="137.1" height="123.49" rx="61.75" transform="translate(385.26 -348.15) rotate(47.69)"/><rect class="cls-11" x="390.59" y="153.3" width="137.1" height="123.49" rx="61.75" transform="translate(984.71 65.03) rotate(137.69)"/><path class="cls-12" d="M477.75,458.42h-51.3a59.61,59.61,0,0,1-59.61-59.61V370.19H356.05v33.88a65.44,65.44,0,0,0,65.45,65.44h56.25Z" transform="translate(41.27)"/><path class="cls-13" d="M360.54,312.06a148.71,148.71,0,0,1,297.41,0h12.53a161.24,161.24,0,0,0-322.47,0Z" transform="translate(41.27)"/><rect class="cls-14" x="367.04" y="280.99" width="60.58" height="127.35" rx="22.98"/><rect class="cls-15" x="673.42" y="280.99" width="60.58" height="127.35" rx="22.98"/><rect class="cls-16" x="516.14" y="442.45" width="68.75" height="39.32" rx="15.32"/><ellipse class="cls-17" cx="190.62" cy="791.98" rx="190.62" ry="184.54"/><circle class="cls-18" cx="801.02" cy="747.17" r="67.02"/></g></svg>